<svg width="22" height="22"  xmlns="http://www.w3.org/2000/svg" viewBox="0 0 64 64" fill="white"  stroke-width="1.5" stroke="white"   >
<path d="M63.621 25.88a1.007 1.007 0 0 0-1.418.157l-2.966 3.703C58.14 15.583 46.277 4.396 31.842 4.396c-12.85 0-23.859 8.73-26.768 21.228a1.008 1.008 0 1 0 1.965.457C9.736 14.502 19.935 6.415 31.842 6.415c13.377 0 24.37 10.368 25.384 23.488l-3.397-3.054a1.01 1.01 0 0 0-1.35 1.5l5.285 4.753a1.01 1.01 0 0 0 1.463-.12l4.551-5.683a1.008 1.008 0 0 0-.157-1.419zM58.172 37.165a1.005 1.005 0 0 0-1.211.754c-2.697 11.579-12.896 19.666-24.803 19.666-13.377 0-24.37-10.368-25.384-23.488l3.397 3.054a1.008 1.008 0 1 0 1.35-1.5l-5.285-4.753a1.01 1.01 0 0 0-1.463.12L.222 36.7a1.008 1.008 0 1 0 1.575 1.262l2.966-3.703c1.097 14.157 12.96 25.344 27.395 25.344 12.85 0 23.859-8.73 26.768-21.228a1.008 1.008 0 0 0-.754-1.211z"/></svg>